<?xml version="1.0" encoding="UTF-8" standalone="no"?>
<svg
   xmlns:dc="http://purl.org/dc/elements/1.1/"
   xmlns:cc="http://creativecommons.org/ns#"
   xmlns:rdf="http://www.w3.org/1999/02/22-rdf-syntax-ns#"
   xmlns:svg="http://www.w3.org/2000/svg"
   xmlns="http://www.w3.org/2000/svg"
   xmlns:sodipodi="http://sodipodi.sourceforge.net/DTD/sodipodi-0.dtd"
   xmlns:inkscape="http://www.inkscape.org/namespaces/inkscape"
   viewBox="0 0 100 100"
   version="1.1"
   id="svg13"
   sodipodi:docname="icono_instagram.svg"
   inkscape:version="1.0.2-2 (e86c870879, 2021-01-15)">
  <metadata
     id="metadata17">
    <rdf:RDF>
      <cc:Work
         rdf:about="">
        <dc:format>image/svg+xml</dc:format>
        <dc:type
           rdf:resource="http://purl.org/dc/dcmitype/StillImage" />
        <dc:title></dc:title>
      </cc:Work>
    </rdf:RDF>
  </metadata>
  <sodipodi:namedview
     pagecolor="#ffffff"
     bordercolor="#666666"
     borderopacity="1"
     objecttolerance="10"
     gridtolerance="10"
     guidetolerance="10"
     inkscape:pageopacity="0"
     inkscape:pageshadow="2"
     inkscape:window-width="976"
     inkscape:window-height="498"
     id="namedview15"
     showgrid="false"
     inkscape:zoom="0.8450324"
     inkscape:cx="50"
     inkscape:cy="50"
     inkscape:window-x="0"
     inkscape:window-y="0"
     inkscape:window-maximized="0"
     inkscape:current-layer="svg13"
     inkscape:document-rotation="0" />
  <defs
     id="defs4">
    <style
       id="style2">.cls-1{fill:#e082a8;}</style>
  </defs>
  <g
     id="ELEMENTS"
     style="fill:#800000">
    <path
       class="cls-1"
       d="M 70,27.25 A 4.42,4.42 0 1 0 74.42,31.67 4.41,4.41 0 0 0 70,27.25 Z"
       id="path6"
       style="fill:#800000" />
    <path
       class="cls-1"
       d="M 50.31,32.92 A 18.56,18.56 0 1 0 68.87,51.48 18.58,18.58 0 0 0 50.31,32.92 Z m 0,30.45 A 11.89,11.89 0 1 1 62.2,51.48 11.9,11.9 0 0 1 50.31,63.37 Z"
       id="path8"
       style="fill:#800000" />
    <path
       class="cls-1"
       d="M 65.05,89.17 H 35 A 22.67,22.67 0 0 1 12.31,66.53 V 36.43 A 22.67,22.67 0 0 1 35,13.79 h 30.1 a 22.67,22.67 0 0 1 22.59,22.64 v 30.1 A 22.67,22.67 0 0 1 65.05,89.17 Z M 35,20.89 A 15.56,15.56 0 0 0 19.4,36.43 v 30.1 A 15.57,15.57 0 0 0 35,82.08 H 65.1 A 15.57,15.57 0 0 0 80.6,66.53 V 36.43 A 15.56,15.56 0 0 0 65.05,20.89 Z"
       id="path10"
       style="fill:#800000" />
  </g>
</svg>
