<?xml version="1.0" encoding="UTF-8" standalone="no"?>
<svg
   xmlns:dc="http://purl.org/dc/elements/1.1/"
   xmlns:cc="http://creativecommons.org/ns#"
   xmlns:rdf="http://www.w3.org/1999/02/22-rdf-syntax-ns#"
   xmlns:svg="http://www.w3.org/2000/svg"
   xmlns="http://www.w3.org/2000/svg"
   xmlns:sodipodi="http://sodipodi.sourceforge.net/DTD/sodipodi-0.dtd"
   xmlns:inkscape="http://www.inkscape.org/namespaces/inkscape"
   viewBox="0 0 100 100"
   version="1.1"
   id="svg9"
   sodipodi:docname="icono_twitter.svg"
   inkscape:version="1.0.2-2 (e86c870879, 2021-01-15)">
  <metadata
     id="metadata13">
    <rdf:RDF>
      <cc:Work
         rdf:about="">
        <dc:format>image/svg+xml</dc:format>
        <dc:type
           rdf:resource="http://purl.org/dc/dcmitype/StillImage" />
      </cc:Work>
    </rdf:RDF>
  </metadata>
  <sodipodi:namedview
     pagecolor="#ffffff"
     bordercolor="#666666"
     borderopacity="1"
     objecttolerance="10"
     gridtolerance="10"
     guidetolerance="10"
     inkscape:pageopacity="0"
     inkscape:pageshadow="2"
     inkscape:window-width="976"
     inkscape:window-height="498"
     id="namedview11"
     showgrid="false"
     inkscape:zoom="2.4921854"
     inkscape:cx="50"
     inkscape:cy="50"
     inkscape:window-x="0"
     inkscape:window-y="0"
     inkscape:window-maximized="0"
     inkscape:current-layer="svg9" />
  <defs
     id="defs4">
    <style
       id="style2">.cls-1{fill:#e082a8;}</style>
  </defs>
  <g
     id="ELEMENTS"
     style="fill:#800000">
    <path
       class="cls-1"
       d="M 87.58,27.77 A 31.37,31.37 0 0 1 79.92,30 c 1.23,-0.21 3,-2.44 3.77,-3.35 A 14.1,14.1 0 0 0 86.23,22 c 0.07,-0.13 0.12,-0.29 0,-0.39 a 0.4,0.4 0 0 0 -0.4,0 39.42,39.42 0 0 1 -9.09,3.48 0.62,0.62 0 0 1 -0.63,-0.17 6.76,6.76 0 0 0 -0.79,-0.81 16.09,16.09 0 0 0 -4.4,-2.7 15.43,15.43 0 0 0 -6.75,-1.09 16.29,16.29 0 0 0 -6.41,1.81 16.61,16.61 0 0 0 -5.17,4.22 15.89,15.89 0 0 0 -3.08,6.19 16.83,16.83 0 0 0 -0.17,6.52 c 0,0.37 0,0.41 -0.31,0.37 C 36.55,37.57 26.2,33.1 17.81,23.53 c -0.37,-0.41 -0.57,-0.41 -0.87,0 -3.67,5.51 -1.89,14.36 2.7,18.71 0.62,0.58 1.24,1.16 1.92,1.69 a 15.92,15.92 0 0 1 -6,-1.69 c -0.37,-0.23 -0.55,-0.1 -0.58,0.32 a 8.49,8.49 0 0 0 0.1,1.79 16,16 0 0 0 9.82,12.79 9.33,9.33 0 0 0 2,0.61 17.47,17.47 0 0 1 -5.91,0.18 c -0.43,-0.08 -0.6,0.14 -0.43,0.55 2.6,7.09 8.21,9.2 12.41,10.4 0.57,0.1 1.13,0.1 1.69,0.23 0,0 -0.07,0 -0.1,0.1 -1.39,2.12 -6.22,3.71 -8.48,4.49 a 30.3,30.3 0 0 1 -12.87,1.65 c -0.7,-0.1 -0.84,-0.09 -1,0 -0.16,0.09 0,0.28 0.2,0.46 0.88,0.58 1.77,1.1 2.68,1.59 a 42.44,42.44 0 0 0 8.61,3.45 C 39.15,85.12 56.58,82 68.19,70.44 77.31,61.38 80.51,48.88 80.51,36.36 c 0,-0.49 0.58,-0.76 0.92,-1 a 29.69,29.69 0 0 0 6.06,-6.36 1.88,1.88 0 0 0 0.4,-1.2 v -0.07 c 0,-0.16 0,-0.1 -0.31,0.04 z"
       id="path6"
       style="fill:#800000" />
  </g>
</svg>
