<?xml version="1.0" encoding="UTF-8" standalone="no"?>
<svg
   xmlns:dc="http://purl.org/dc/elements/1.1/"
   xmlns:cc="http://creativecommons.org/ns#"
   xmlns:rdf="http://www.w3.org/1999/02/22-rdf-syntax-ns#"
   xmlns:svg="http://www.w3.org/2000/svg"
   xmlns="http://www.w3.org/2000/svg"
   xmlns:sodipodi="http://sodipodi.sourceforge.net/DTD/sodipodi-0.dtd"
   xmlns:inkscape="http://www.inkscape.org/namespaces/inkscape"
   viewBox="0 0 100 100"
   version="1.1"
   id="svg9"
   sodipodi:docname="icono_tiktok.svg"
   inkscape:version="1.0.2-2 (e86c870879, 2021-01-15)">
  <metadata
     id="metadata13">
    <rdf:RDF>
      <cc:Work
         rdf:about="">
        <dc:format>image/svg+xml</dc:format>
        <dc:type
           rdf:resource="http://purl.org/dc/dcmitype/StillImage" />
      </cc:Work>
    </rdf:RDF>
  </metadata>
  <sodipodi:namedview
     pagecolor="#ffffff"
     bordercolor="#666666"
     borderopacity="1"
     objecttolerance="10"
     gridtolerance="10"
     guidetolerance="10"
     inkscape:pageopacity="0"
     inkscape:pageshadow="2"
     inkscape:window-width="976"
     inkscape:window-height="498"
     id="namedview11"
     showgrid="false"
     inkscape:zoom="2.4921854"
     inkscape:cx="50"
     inkscape:cy="50"
     inkscape:window-x="0"
     inkscape:window-y="0"
     inkscape:window-maximized="0"
     inkscape:current-layer="svg9" />
  <defs
     id="defs4">
    <style
       id="style2">.cls-1{fill:#e082a8;}</style>
  </defs>
  <g
     id="ELEMENTS"
     style="fill:#800000">
    <path
       class="cls-1"
       d="m 79.47,44.91 c -0.56,0.05 -1.13,0.08 -1.69,0.08 A 18.38,18.38 0 0 1 62.39,36.68 V 65 A 20.94,20.94 0 1 1 41.45,44.07 v 0 c 0.44,0 0.87,0 1.3,0.06 v 10.32 a 11.22,11.22 0 0 0 -1.3,-0.13 10.69,10.69 0 0 0 0,21.37 c 5.9,0 11.12,-4.65 11.12,-10.56 l 0.1,-48.1 h 9.87 a 18.38,18.38 0 0 0 16.94,16.41 v 11.47"
       id="path6"
       style="fill:#800000" />
  </g>
</svg>
