<?xml version="1.0" encoding="UTF-8" standalone="no"?>
<svg
   xmlns:dc="http://purl.org/dc/elements/1.1/"
   xmlns:cc="http://creativecommons.org/ns#"
   xmlns:rdf="http://www.w3.org/1999/02/22-rdf-syntax-ns#"
   xmlns:svg="http://www.w3.org/2000/svg"
   xmlns="http://www.w3.org/2000/svg"
   xmlns:sodipodi="http://sodipodi.sourceforge.net/DTD/sodipodi-0.dtd"
   xmlns:inkscape="http://www.inkscape.org/namespaces/inkscape"
   viewBox="0 0 100 100"
   version="1.1"
   id="svg9"
   sodipodi:docname="icono_pinterest.svg"
   inkscape:version="1.0.2-2 (e86c870879, 2021-01-15)">
  <metadata
     id="metadata13">
    <rdf:RDF>
      <cc:Work
         rdf:about="">
        <dc:format>image/svg+xml</dc:format>
        <dc:type
           rdf:resource="http://purl.org/dc/dcmitype/StillImage" />
      </cc:Work>
    </rdf:RDF>
  </metadata>
  <sodipodi:namedview
     pagecolor="#ffffff"
     bordercolor="#666666"
     borderopacity="1"
     objecttolerance="10"
     gridtolerance="10"
     guidetolerance="10"
     inkscape:pageopacity="0"
     inkscape:pageshadow="2"
     inkscape:window-width="976"
     inkscape:window-height="498"
     id="namedview11"
     showgrid="false"
     inkscape:zoom="2.4921854"
     inkscape:cx="50"
     inkscape:cy="50"
     inkscape:window-x="0"
     inkscape:window-y="0"
     inkscape:window-maximized="0"
     inkscape:current-layer="svg9" />
  <defs
     id="defs4">
    <style
       id="style2">.cls-1{fill:#e082a8;fill-rule:evenodd;}</style>
  </defs>
  <g
     id="ELEMENTS"
     style="fill:#800000">
    <path
       class="cls-1"
       d="m 45.63,62 c -0.06,0.19 -0.11,0.36 -0.15,0.53 -2.48,9.89 -2.81,12.1 -5.41,16.7 a 52.41,52.41 0 0 1 -4.19,6.25 C 35.71,85.7 35.54,85.99 35.2,85.92 34.86,85.85 34.78,85.5 34.74,85.19 A 54,54 0 0 1 34.2,76.12 c 0.13,-4 0.62,-5.33 5.73,-26.81 a 1.5,1.5 0 0 0 -0.12,-0.89 15.11,15.11 0 0 1 -0.4,-10 c 2.31,-7.33 10.62,-7.89 12.07,-1.84 0.9,3.73 -1.47,8.63 -3.29,15.86 -1.5,6 5.52,10.21 11.53,5.85 5.53,-4 7.68,-13.64 7.27,-20.46 -0.8,-13.61 -15.72,-16.55 -25.18,-12.17 -10.85,5 -13.32,18.47 -8.42,24.61 0.62,0.79 1.1,1.26 0.89,2.06 -0.31,1.23 -0.59,2.47 -0.93,3.69 a 1.31,1.31 0 0 1 -1.94,0.87 11.16,11.16 0 0 1 -4.53,-3.39 c -4.16,-5.16 -5.35,-15.35 0.15,-24 6.1,-9.56 17.43,-13.43 27.78,-12.25 12.36,1.39 20.19,9.84 21.64,19.42 0.67,4.36 0.19,15.13 -5.94,22.74 -7.05,8.74 -18.48,9.32 -23.75,4 C 46.36,63 46,62.47 45.63,62 Z"
       id="path6"
       style="fill:#800000" />
  </g>
</svg>
