<?xml version="1.0" encoding="UTF-8" standalone="no"?>
<svg
   xmlns:dc="http://purl.org/dc/elements/1.1/"
   xmlns:cc="http://creativecommons.org/ns#"
   xmlns:rdf="http://www.w3.org/1999/02/22-rdf-syntax-ns#"
   xmlns:svg="http://www.w3.org/2000/svg"
   xmlns="http://www.w3.org/2000/svg"
   xmlns:sodipodi="http://sodipodi.sourceforge.net/DTD/sodipodi-0.dtd"
   xmlns:inkscape="http://www.inkscape.org/namespaces/inkscape"
   version="1.1"
   id="Capa_1"
   x="0px"
   y="0px"
   width="395px"
   height="229px"
   viewBox="0 0 395 229"
   enable-background="new 0 0 395 229"
   xml:space="preserve"
   sodipodi:docname="logo.svg"
   inkscape:version="1.0.2-2 (e86c870879, 2021-01-15)"><metadata
   id="metadata47"><rdf:RDF><cc:Work
       rdf:about=""><dc:format>image/svg+xml</dc:format><dc:type
         rdf:resource="http://purl.org/dc/dcmitype/StillImage" /><dc:title></dc:title></cc:Work></rdf:RDF></metadata><defs
   id="defs45" /><sodipodi:namedview
   pagecolor="#ffffff"
   bordercolor="#666666"
   borderopacity="1"
   objecttolerance="10"
   gridtolerance="10"
   guidetolerance="10"
   inkscape:pageopacity="0"
   inkscape:pageshadow="2"
   inkscape:window-width="3840"
   inkscape:window-height="2066"
   id="namedview43"
   showgrid="false"
   inkscape:zoom="2"
   inkscape:cx="413.16713"
   inkscape:cy="235.86476"
   inkscape:window-x="-11"
   inkscape:window-y="-11"
   inkscape:window-maximized="1"
   inkscape:current-layer="Capa_1" />
<path
   style="fill:#770202;stroke:none;stroke-width:0.221676"
   d="m 392.13151,137.48608 c -9.88771,0.42454 -18.53942,-1.67231 -27.93121,-4.80304 -3.65719,-1.21901 -7.66795,-2.26376 -11.08379,-4.06398 0.35469,4.48915 2.41319,8.62453 2.84411,13.0789 0.55307,5.71546 -1.49053,10.75748 -3.50914,15.96066 h -0.44335 c -1.82706,-4.38853 -5.09475,-8.84001 -5.31155,-13.7439 -0.10065,-2.28219 0.7794,-3.48831 1.41891,-5.54194 0.35471,-1.13895 0.14139,-2.57563 0.28266,-3.76846 0.49656,-4.19501 1.25334,-9.22837 6.27011,-10.12574 3.81283,-0.68209 7.67174,0.45224 11.30547,1.54243 6.69505,2.00861 13.08074,5.16639 19.95084,6.58823 -0.0897,-4.35063 -1.27648,-8.91716 -2.46975,-13.07891 -0.95057,-3.31537 -2.40631,-6.66424 -4.32917,-9.53206 -1.50888,-2.25021 -3.27298,-4.19942 -5.39328,-5.88549 -9.61341,-7.644717 -23.5096,-5.286759 -34.80311,-4.51354 -4.60688,0.315659 -9.54624,0.46594 -13.96558,-1.140071 -4.94093,-1.795824 -6.97347,-5.518627 -10.1971,-9.298439 l 0.66505,4.433509 -5.09856,-2.881782 -1.10837,2.438445 c 3.00748,0.884719 5.94646,3.375674 8.42368,5.237519 7.67132,5.765139 12.93723,13.857429 14.53418,23.358669 1.26774,7.54275 0.55021,15.40538 2.50914,22.83265 0.96959,3.67626 2.71133,7.21089 5.3546,9.97542 1.32427,1.38501 4.49714,2.90924 5.17789,4.66405 0.81954,2.11301 0.61627,5.04779 1.11435,7.30645 1.17425,5.32375 2.72843,10.53625 4.34508,15.73898 2.60538,8.38334 5.6115,16.64034 8.1344,25.04938 1.66345,5.54415 3.38722,11.23719 3.38722,17.06906 l -26.8228,-0.22165 c 1.05162,-2.56323 2.21035,-5.20849 4.05668,-7.31197 0.79182,-0.90201 2.97954,-1.86276 3.12163,-3.11566 0.15709,-1.38747 -0.72068,-3.31827 -1.09971,-4.64633 -1.05829,-3.70865 -2.37351,-7.31932 -3.89509,-10.86213 -5.66225,-13.18242 -15.87264,-23.21081 -28.78461,-29.30977 -11.88715,-5.61483 -25.70533,-8.48333 -35.68984,-17.50155 -11.32364,-10.22767 -13.96559,-27.12648 -13.96559,-41.63741 l -2.6601,0.22166 c 0.4899,11.4139 1.60072,23.28464 7.28472,33.47306 2.24759,4.02897 5.498,6.84317 8.2326,10.41879 -22.04946,10.44826 -45.29195,19.89564 -70.04962,19.28913 -6.33306,-0.15514 -12.73438,-1.0871 -18.84245,-2.82082 -1.99221,-0.5655 -4.62283,-0.91596 -6.36455,-2.07845 -1.98797,-1.32692 -3.52618,-4.12516 -5.03402,-5.96616 -3.45594,-4.21497 -8.29291,-8.67399 -10.76904,-13.52227 -2.39408,1.68696 -4.18746,4.18572 -6.42859,6.07615 -0.73153,0.61739 -1.67586,1.67743 -2.66012,1.8499 -1.4298,0.25115 -3.90371,-1.80954 -5.09853,-2.51779 -4.53771,-2.69049 -8.91804,-5.72679 -13.52224,-8.29002 v -0.44336 c 11.08821,-3.75076 21.89493,-6.83294 33.47307,-8.77527 l 10.41877,-1.73526 c 1.11525,-0.18679 3.23736,-0.13692 4.09789,-0.92773 1.30767,-1.20169 1.25714,-5.67403 1.53511,-7.40421 1.24583,-7.7573 1.87051,-15.71259 0.51851,-23.49765 -0.41609,-2.39587 -1.00109,-4.771774 -1.72375,-7.093626 -0.24141,-0.776517 -0.47949,-2.163088 -1.55551,-2.008825 -0.5994,0.0859 -1.32828,0.476378 -1.35687,1.145395 -0.0924,2.15493 1.46328,5.116956 1.89843,7.292026 2.02611,10.13214 -0.40233,19.4297 -1.19704,29.4829 -15.10059,2.84525 -30.39844,4.57808 -44.77855,10.33012 -3.48697,1.39455 -6.96286,2.9638 -10.1971,4.87752 -0.85345,0.50521 -2.83968,1.25092 -3.20321,2.23385 -0.93993,2.52753 2.86405,2.06601 4.08992,2.06601 5.78574,0 11.22344,0.92969 16.40401,3.60402 1.91749,0.98956 3.65766,2.25775 5.32021,3.62595 0.78032,0.64129 1.5606,1.71667 2.66012,1.6894 4.94782,-0.12245 7.2067,-5.98769 11.08381,-7.81097 l 12.10573,15.07395 4.96331,6.42861 c -4.9877,0.0412 -10.08625,1.19039 -15.07397,1.53199 -3.0436,0.20841 -6.30222,-0.43802 -9.31037,0.0697 -1.27022,0.21404 -2.41185,1.20877 -3.54682,1.77694 -2.30987,1.15493 -4.94781,1.89889 -7.53701,1.35 -6.30222,-1.33647 -11.51605,-7.44231 -17.06902,-10.52295 -7.85399,-4.35638 -16.65895,-5.51111 -25.49275,-5.51111 0,-5.40711 0.219477,-10.77852 0.221677,-16.18234 0,-1.73437 -0.354688,-5.41311 0.576353,-6.87106 1.56726,-2.45174 4.80372,-4.51708 6.96063,-6.46717 4.08549,-3.6949 8.03354,-7.56114 12.19217,-11.17381 1.96185,-1.70512 6.04067,-4.29652 7.08921,-6.68086 0.35024,-0.79782 -0.8069,-2.07289 -1.19263,-2.7235 -1.39211,-2.35512 -2.42291,-4.92654 -3.2298,-7.53699 -2.47391,-7.987431 -0.79581,-15.231798 -0.45001,-23.275967 -0.64065,-0.0055 -1.78673,-0.300598 -2.30543,0.153642 -0.49877,0.436949 -0.49435,1.456211 -0.59409,2.063156 -0.30814,1.880267 -0.61406,3.857817 -0.6473,5.763577 -0.0908,5.470292 -0.10866,10.642442 1.52735,15.960652 0.634,2.06424 1.44311,4.05579 2.4074,5.98526 0.38794,0.77608 1.35667,1.99707 1.31898,2.88156 -0.0398,0.87962 -1.12611,1.50653 -1.70691,2.03299 l -5.09855,4.6552 c -1.92859,1.74415 -3.89264,3.48099 -5.76357,5.28496 -0.67612,0.65174 -1.65372,1.89468 -2.66012,1.99089 -1.667,0.1593 -4.64412,-2.92014 -5.98525,-3.8423 -5.612845,-3.86028 -11.094876,-7.92137 -16.625697,-11.89492 0.128655,6.24018 0.999749,12.10949 -1.205911,18.17743 -1.019721,2.81196 -2.38745,5.48914 -4.041151,7.98033 -0.729314,1.09908 -2.37638,2.63707 -2.453966,3.99017 -0.07323,1.28261 0.738184,2.81507 1.179316,3.99016 1.511831,4.04537 4.395827,10.07451 0.516517,13.67719 -6.501774,6.03601 -16.831867,3.54084 -24.586086,5.38695 0.254919,-3.1908 1.800004,-6.56138 1.638174,-9.75374 -0.08869,-1.70136 -1.31675,-3.5763 -2.012812,-5.09855 -2.119227,-4.62616 -4.668495,-9.20465 -8.272948,-12.85632 -1.711348,-1.73262 -3.719714,-3.18793 -5.761345,-4.50267 -0.931054,-0.59919 -2.451755,-1.14185 -3.101249,-2.06204 -0.55864,-0.7925 -0.527598,-2.25467 -0.684993,-3.18993 -0.343586,-2.02742 -0.829073,-4.01276 -1.405428,-5.98523 -1.310104,-4.47808 -4.054453,-8.14703 -5.670467,-12.41387 l 7.536987,0.44337 0.221678,-2.66013 -17.290737,-0.4347 -15.9606617,1.76477 v -0.22165 c 1.8310333,-0.67323 0.8866984,-4.7297 0.8866984,-6.42861 l -1.3300533,0.66504 v -0.22161 C 13.087755,97.549423 26.607776,87.630092 37.893285,92.486119 l 0.88671,-2.438453 -6.206934,-1.330054 C 38.788863,79.32076 47.476348,70.932765 55.405688,63.003206 74.565146,43.843064 96.885702,25.944065 121.90849,15.027108 c 7.94928,-3.46856 15.94959,-6.5352695 24.38435,-8.6340929 2.33204,-0.5803963 6.99167,-2.400189 9.31039,-1.5566582 1.1372,0.4136982 2.04386,1.6980202 2.8818,2.525324 1.81775,1.7969468 3.70864,3.5302011 5.54188,5.3178121 5.96532,5.820071 12.10396,11.542361 18.39912,17.009804 16.07683,13.962917 33.56175,26.256848 53.42392,34.200594 5.55717,2.222541 11.40742,4.682476 17.29072,5.885505 4.68534,0.958082 9.6553,0.991563 14.40893,1.467274 7.4554,0.745923 14.91768,2.020809 22.16761,3.926974 13.66455,3.592936 26.35039,10.411921 40.12334,13.453976 6.20293,1.369966 12.51182,1.692501 18.84246,1.415397 7.89186,-0.345611 16.27921,-1.376176 23.94099,1.271321 5.83126,2.015017 9.59204,7.158366 12.24694,12.481232 5.0933,10.21173 7.26057,22.36269 7.26057,33.69474 M 3.7551993,103.34804 3.3118332,103.7914 3.7551993,103.34804 M 3.090167,103.7914 2.8684896,104.01304 3.090167,103.7914 m 2.6601065,4.87687 0.2216887,0.22165 -0.2216887,-0.22165 m -1.5517419,0.66502 v 0.22165 h -0.665021 l 0.665021,-0.22165 m -1.1083646,0.22165 -0.2216774,0.22166 0.2216774,-0.22166 m 320.986813,112.83309 -26.8228,-0.22166 c 1.00265,-2.5845 2.14849,-5.23377 4.02874,-7.31443 0.79406,-0.87893 2.99752,-1.8758 3.11876,-3.1132 0.11955,-1.21744 -0.60516,-2.80886 -0.91485,-3.9813 -0.93591,-3.54328 -2.16024,-7.05261 -3.60576,-10.41877 -4.95602,-11.54001 -12.77588,-21.09869 -23.68609,-27.48515 -5.25196,-3.07466 -10.92419,-4.97642 -16.40404,-7.53964 2.75589,-1.85166 6.31645,-2.82062 9.31038,-4.26904 1.38305,-0.66926 3.33979,-2.05273 4.8769,-2.17843 0.98136,-0.0802 1.90773,0.89668 2.6601,1.40544 1.75635,1.18685 3.64943,2.26064 5.54191,3.21362 6.58934,3.31804 13.61977,5.55963 20.39418,8.44541 2.01528,0.85856 6.20406,1.87139 7.51726,3.66653 0.74728,1.02148 0.88915,2.71065 1.27662,3.90372 1.05385,3.24556 2.02326,6.51527 3.10281,9.75374 3.78446,11.35381 9.60588,23.99908 9.60588,36.13318 M 208.80548,175.8361 c 0,6.2384 -0.0535,12.65416 0.75901,18.84245 0.24941,1.89911 0.44601,3.85142 0.57658,5.76359 0.0419,0.61514 0.35378,1.52047 -0.0148,2.07553 -1.06715,1.6065 -5.10275,2.19328 -6.86264,2.52179 -7.28649,1.36022 -14.06844,-0.76921 -21.28091,-0.82884 1.34004,-3.5353 4.5415,-6.90697 6.96662,-9.75374 0.91352,-1.07202 2.66722,-2.40185 3.07687,-3.7685 0.38859,-1.29591 -0.29861,-3.33465 -0.48259,-4.65519 -0.53247,-3.82171 -1.27709,-7.68216 -1.58056,-11.52715 6.27233,1.18175 12.48257,1.33006 18.84246,1.33006 z"
   id="path847" />

<rect
   x="84.991"
   y="193.021"
   fill="none"
   width="256.019"
   height="50.722"
   id="rect38" />

</svg>
